<svg width="72" height="72" viewBox="0 0 72 72" fill="none" xmlns="http://www.w3.org/2000/svg">
<path d="M6.50001 63C7.28001 65.77 8.05001 68.54 8.83001 71.32H2.26001C2.07484 71.32 1.89149 71.2835 1.72042 71.2127C1.54935 71.1418 1.39392 71.038 1.26299 70.907C0.998559 70.6426 0.850006 70.284 0.850006 69.91V42.77C2.74334 49.4967 4.62667 56.24 6.50001 63Z" fill="#FF001F"/>
<path d="M25.19 36.5C20 31.56 14.84 26.64 9.69001 21.68C9.47072 21.3889 9.14726 21.1941 8.78744 21.1363C8.42763 21.0785 8.05941 21.1622 7.76001 21.37C5.47001 22.5 3.16001 23.63 0.850006 24.72V1.81C0.849997 1.43512 0.99823 1.07544 1.26237 0.809428C1.52652 0.543412 1.88513 0.39264 2.26001 0.39H51.36L48.27 1.88C43.72 4.06 39.19 6.27 34.62 8.4C34.3957 8.49721 34.1842 8.62146 33.99 8.77L33.67 8.93C33.2622 9.09483 32.9076 9.36855 32.6448 9.72126C32.382 10.074 32.2213 10.4921 32.18 10.93C30.45 19.37 28.67 27.81 26.9 36.25C26.8842 36.7682 26.7212 37.2711 26.43 37.7L25.19 36.5Z" fill="#FF001F"/>
<path d="M71.72 1.81V26.81C70.83 23.81 69.97 20.81 69.21 17.81C68.89 16.52 68.5 16.41 67.37 16.97C62.62 19.36 57.8 21.6 53 23.93C52.09 24.38 51.73 24.3 51.49 23.24C51.01 21.18 50.49 19.13 49.77 17.12C49.45 16.12 49.77 15.82 50.6 15.44C55.68 13.04 60.73 10.58 65.81 8.18C66.53 7.84 66.75 7.52 66.51 6.69C65.89 4.59667 65.2867 2.49667 64.7 0.39H70.3C70.4865 0.39 70.6711 0.42673 70.8434 0.498091C71.0157 0.569453 71.1722 0.674049 71.3041 0.805909C71.436 0.937768 71.5405 1.09431 71.6119 1.26659C71.6833 1.43887 71.72 1.62352 71.72 1.81Z" fill="#FF001F"/>
<path d="M71.4 29.87C71.5105 29.8248 71.6175 29.7713 71.72 29.71V69.86C71.72 70.046 71.6832 70.2302 71.6117 70.4019C71.5402 70.5736 71.4355 70.7295 71.3035 70.8606C71.1715 70.9916 71.0149 71.0953 70.8426 71.1656C70.6704 71.2358 70.486 71.2713 70.3 71.27H23C21.28 65.27 19.59 59.16 17.89 53.11C17.16 50.51 16.43 47.92 15.68 45.22C16.1653 45.3471 16.5945 45.6321 16.9 46.03L32.1 59.61C33.43 60.8 34.3 60.49 34.69 58.71C36.35 51.0567 38.0167 43.41 39.69 35.77C39.81 35.2 39.95 34.64 40.17 33.71C40.4 34.31 40.5 34.5 40.57 34.71C42.97 43.25 45.38 51.79 47.74 60.34C48 61.34 48.28 61.42 49.15 61C52.6033 59.2933 56.0733 57.6267 59.56 56C59.7895 55.9082 59.9923 55.7604 60.15 55.57C60.45 55.29 60.45 54.93 60.29 54.38C58.8 49.2 57.4 44 55.89 38.84C55.58 37.84 55.77 37.37 56.72 36.93C61.6 34.6 66.49 32.19 71.4 29.87Z" fill="#FF001F"/>
</svg>
