<svg width="17" height="17" viewBox="0 0 17 17" fill="none" xmlns="http://www.w3.org/2000/svg">
<path fill-rule="evenodd" clip-rule="evenodd" d="M11.863 6.90533C12.1559 6.61244 12.1559 6.13756 11.863 5.84467C11.5701 5.55178 11.0952 5.55178 10.8024 5.84467L7.79122 8.8558L6.55084 7.61542C6.25794 7.32253 5.78307 7.32253 5.49018 7.61542C5.19728 7.90832 5.19728 8.38319 5.49018 8.67608L7.24606 10.432C7.25085 10.437 7.25573 10.442 7.26069 10.447C7.45351 10.6398 7.72521 10.7057 7.97193 10.6446C8.10009 10.613 8.22152 10.5471 8.32167 10.4469C8.32551 10.4431 8.32931 10.4392 8.33305 10.4353L11.863 6.90533Z" fill="#F0F0F0"/>
<path d="M0.75 8.5C0.75 10.2328 0.843827 11.5741 1.07592 12.6184C1.30612 13.6543 1.66226 14.3514 2.15542 14.8446C2.64859 15.3377 3.34575 15.6939 4.38157 15.9241C5.4259 16.1562 6.76718 16.25 8.5 16.25C10.2328 16.25 11.5741 16.1562 12.6184 15.9241C13.6543 15.6939 14.3514 15.3377 14.8446 14.8446C15.3377 14.3514 15.6939 13.6543 15.9241 12.6184C16.1562 11.5741 16.25 10.2328 16.25 8.5C16.25 6.76718 16.1562 5.4259 15.9241 4.38157C15.6939 3.34575 15.3377 2.64859 14.8446 2.15542C14.3514 1.66226 13.6543 1.30612 12.6184 1.07592C11.5741 0.843828 10.2328 0.75 8.5 0.75C6.76718 0.75 5.4259 0.843828 4.38157 1.07592C3.34575 1.30612 2.64859 1.66226 2.15542 2.15542C1.66226 2.64859 1.30612 3.34575 1.07592 4.38157C0.843827 5.4259 0.75 6.76718 0.75 8.5Z" stroke="#F0F0F0" stroke-width="1.5" stroke-linecap="round" stroke-linejoin="round"/>
</svg>
