<svg width="50" height="50" viewBox="0 0 50 51" fill="none" xmlns="http://www.w3.org/2000/svg">
<path d="M1.25098 25.9985C1.25098 31.1169 1.52686 35.1446 2.23234 38.319C2.93466 41.4791 4.04601 43.7164 5.66455 45.335C7.28308 46.9535 9.52039 48.0649 12.6806 48.7672C15.8549 49.4727 19.8826 49.7485 25.001 49.7485C30.1193 49.7485 34.147 49.4727 37.3214 48.7672C40.4816 48.0649 42.7189 46.9535 44.3374 45.335C45.9559 43.7164 47.0673 41.4791 47.7696 38.319C48.4751 35.1446 48.751 31.1169 48.751 25.9985C48.751 20.8802 48.4751 16.8525 47.7696 13.6781C47.0673 10.5179 45.9559 8.28064 44.3374 6.66211C42.7189 5.04357 40.4816 3.93222 37.3214 3.2299C34.147 2.52442 30.1193 2.24854 25.001 2.24854C19.8826 2.24854 15.8549 2.52442 12.6806 3.2299C9.52039 3.93222 7.28308 5.04357 5.66455 6.66211C4.04601 8.28064 2.93466 10.5179 2.23234 13.6781C1.52686 16.8525 1.25098 20.8802 1.25098 25.9985Z" stroke="white" stroke-width="2.5" stroke-linecap="round" stroke-linejoin="round"/>
<path d="M34.3626 25.9986C34.3626 24.7667 33.6422 23.8849 32.7882 23.1776C31.9675 22.4979 30.7792 21.7821 29.3591 20.9267L29.2704 20.8733L25.9051 18.8461C25.8747 18.8278 25.8444 18.8095 25.8142 18.7914C24.396 17.937 23.2072 17.2208 22.2308 16.8184C21.2219 16.4025 20.0827 16.1703 19.0061 16.8188C17.9494 17.4554 17.5877 18.5617 17.432 19.6563C17.2792 20.7301 17.2792 22.1545 17.2793 23.8712L17.2793 23.9713L17.2793 28.0258L17.2793 28.126C17.2792 29.8426 17.2792 31.267 17.432 32.3408C17.5877 33.4354 17.9494 34.5418 19.0061 35.1783C20.0827 35.8268 21.2219 35.5946 22.2308 35.1787C23.2073 34.7763 24.396 34.0601 25.8142 33.2057L25.9051 33.151L29.2704 31.1238L29.3591 31.0704C30.7792 30.215 31.9675 29.4993 32.7882 28.8195C33.6422 28.1122 34.3626 27.2304 34.3626 25.9986Z" stroke="white" stroke-width="2.5" stroke-linecap="round" stroke-linejoin="round"/>
</svg>
